<?xml version="1.0" encoding="UTF-8"?>
<svg id="Layer_1" data-name="Layer 1" xmlns="http://www.w3.org/2000/svg" viewBox="0 240 800 320">
  <defs>
    <style>
      .cls-1 {
        fill: #231f20;
      }
    </style>
  </defs>
  <path class="cls-1" d="M228.83,344.87l-.05-.23-65.6-91.13-64.26,90.87-.13,.19-33.72,143.81-.05,.21,97.57,57.56,.6,.35,98.56-57.76,.19-.11-33.1-143.76Zm-50.81,144.36l-14.78,46.75-14.05-46.75h28.83Zm-34.39,0l15.5,49.47-83.04-49.47h67.54Zm81.42-64.81l-13.62-23.5,14.65-46.53,27.45,119.15-28.48-49.12Zm-59.46-102.74v-56.72l58.14,80.81-15.69,49.29-42.44-73.37Zm19,162.81l24.73-77.76,11.69,20.14,33.34,57.62h-69.76Zm66.49,4.82l-83.77,49.44,15.75-49.47,68.01,.04Zm-44.94-88.14l-26.53,83.32h-32.48l-26.26-83.98,42.35-73.51,42.92,74.16Zm-63.98,83.29H72.83l45.06-77.63,24.28,77.63Zm18.68-162.89l-41.94,72.81-15.2-48.58,57.14-80.76v56.52Zm-86.96,151.02l27.24-118.2,14.46,45.85-41.69,72.35Z"/>
  <g>
    <path class="cls-1" d="M352.18,345.16v11.94h-30.63v10.11h28.96v12.02h-28.96v11.62h30.63v12.02h-44.24v-57.69h44.24Z"/>
    <path class="cls-1" d="M356.39,374.05c0-17.98,12.17-29.84,29.92-29.84s29.92,11.86,29.92,29.84-12.25,29.84-29.92,29.84-29.92-11.86-29.92-29.84Zm45.43,0c0-12.25-7.08-18.62-15.52-18.62s-15.52,6.37-15.52,18.62,7.08,18.62,15.52,18.62,15.52-6.37,15.52-18.62Z"/>
    <path class="cls-1" d="M433.66,360.68c0,2.86,2.71,4.93,6.68,5.81l7.88,1.59c9.31,1.91,21.09,4.77,21.09,16.87s-12.17,18.94-24.19,18.94c-14.8,0-24.51-7.4-26.58-19.81h13.53c1.51,6.05,6.29,8.83,13.37,8.83,4.61,0,9.87-1.51,9.87-6.29,0-3.74-4.46-5.57-10.74-6.92l-7-1.43c-9.39-1.99-17.9-6.45-17.9-16.79,0-11.78,12.65-17.27,23.95-17.27s22.04,4.93,24.03,17.66h-13.45c-1.35-4.3-5.57-6.76-11.38-6.76-5.25,0-9.15,1.99-9.15,5.57Z"/>
    <path class="cls-1" d="M346.53,432.1v4.93h-31.67v20.37h29.76v5.01h-29.76v22.44h31.67v4.93h-37v-57.69h37Z"/>
    <path class="cls-1" d="M372.94,483.19l17.82-51.08h5.73l-20.69,57.69h-6.13l-20.77-57.69h5.89l18.14,51.08Z"/>
    <path class="cls-1" d="M408.35,437.19v52.6h-5.33v-57.69h8.59l19.1,51.64,19.02-51.64h8.51v57.69h-5.33v-52.6l-19.57,52.6h-5.41l-19.57-52.6Z"/>
    <path class="cls-1" d="M482.35,437.03v-4.93h44.16v4.93h-19.42v52.76h-5.33v-52.76h-19.42Z"/>
    <path class="cls-1" d="M542.03,446.26c12.09,0,19.73,10.19,19.1,23.55h-34.06c.16,10.34,6.68,16.47,15.44,16.47,6.68,0,11.38-3.42,13.05-9.31h5.17c-2.07,8.83-9.15,13.85-18.54,13.85-12.57,0-20.21-8.99-20.21-22.28s8.59-22.28,20.05-22.28Zm13.69,19.02c0-7.24-5.17-14.56-13.77-14.56-7.96,0-13.69,5.09-14.72,14.56h28.49Z"/>
    <path class="cls-1" d="M582.93,450.56c-4.69,0-10.9,1.83-10.9,7,0,4.22,3.34,6.45,8.04,7.32l6.05,1.11c7,1.27,14.8,3.66,14.8,11.78,0,8.51-7.72,13.05-17.03,13.05s-16.47-4.38-17.74-14.16h5.17c.95,6.76,6.37,9.79,12.97,9.79,5.17,0,11.62-2.15,11.62-7.88,0-5.01-4.77-6.76-10.58-7.88l-6.68-1.27c-6.21-1.19-11.62-4.77-11.62-11.46s6.76-11.78,16.39-11.78,15.44,5.65,16.47,12.49h-5.17c-1.03-5.09-5.73-8.12-11.78-8.12Z"/>
    <path class="cls-1" d="M616.75,437.35v9.63h8.43v4.3h-8.43v27.37c0,5.57,.16,6.68,5.89,6.68h2.55v4.46h-4.06c-7.64,0-9.39-1.75-9.39-10.19v-28.33h-7.08v-4.3h7.08v-9.63h5.01Z"/>
    <path class="cls-1" d="M651.68,446.26c10.11,0,14.4,6.05,14.4,16.55v26.97h-4.93v-25.62c0-8.04-2.07-13.45-10.74-13.45-7.4,0-12.97,6.21-12.97,15.28v23.79h-4.93v-42.81h4.93v7.24c2.07-4.06,6.29-7.96,14.24-7.96Z"/>
    <path class="cls-1" d="M692.66,446.26c12.09,0,19.73,10.19,19.1,23.55h-34.06c.16,10.34,6.68,16.47,15.44,16.47,6.68,0,11.38-3.42,13.05-9.31h5.17c-2.07,8.83-9.15,13.85-18.54,13.85-12.57,0-20.21-8.99-20.21-22.28s8.59-22.28,20.05-22.28Zm13.69,19.02c0-7.24-5.17-14.56-13.77-14.56-7.96,0-13.69,5.09-14.72,14.56h28.49Z"/>
    <path class="cls-1" d="M726.55,437.35v9.63h8.43v4.3h-8.43v27.37c0,5.57,.16,6.68,5.89,6.68h2.55v4.46h-4.06c-7.64,0-9.39-1.75-9.39-10.19v-28.33h-7.08v-4.3h7.08v-9.63h5.01Z"/>
  </g>
</svg>