<?xml version="1.0" encoding="UTF-8"?>
<svg id="Layer_1" data-name="Layer 1" xmlns="http://www.w3.org/2000/svg" viewBox="0 240 800 320">
  <defs>
    <style>
      .cls-1 {
        fill: #231f20;
      }
    </style>
  </defs>
  <path class="cls-1" d="M216.46,344.87l-.05-.23-65.6-91.13-64.26,90.87-.13,.19-33.72,143.81-.05,.21,97.57,57.56,.6,.35,98.56-57.76,.19-.11-33.1-143.76Zm-50.81,144.36l-14.78,46.75-14.05-46.75h28.83Zm-34.39,0l15.5,49.47-83.04-49.47h67.54Zm81.42-64.81l-13.62-23.5,14.65-46.53,27.45,119.15-28.48-49.12Zm-59.46-102.74v-56.72l58.14,80.81-15.69,49.29-42.44-73.37Zm19,162.81l24.73-77.76,11.69,20.14,33.34,57.62h-69.76Zm66.49,4.82l-83.77,49.44,15.75-49.47,68.01,.04Zm-44.94-88.14l-26.53,83.32h-32.48l-26.26-83.98,42.35-73.51,42.92,74.16Zm-63.98,83.29H60.45l45.06-77.63,24.28,77.63Zm18.68-162.89l-41.94,72.81-15.2-48.58,57.14-80.76v56.52ZM61.52,472.58l27.24-118.2,14.46,45.85-41.69,72.35Z"/>
  <g>
    <path class="cls-1" d="M339.8,345.16v11.94h-30.63v10.11h28.96v12.02h-28.96v11.62h30.63v12.02h-44.24v-57.69h44.24Z"/>
    <path class="cls-1" d="M344.02,374.05c0-17.98,12.17-29.84,29.92-29.84s29.92,11.86,29.92,29.84-12.25,29.84-29.92,29.84-29.92-11.86-29.92-29.84Zm45.43,0c0-12.25-7.08-18.62-15.52-18.62s-15.52,6.37-15.52,18.62,7.08,18.62,15.52,18.62,15.52-6.37,15.52-18.62Z"/>
    <path class="cls-1" d="M421.28,360.68c0,2.86,2.71,4.93,6.68,5.81l7.88,1.59c9.31,1.91,21.09,4.77,21.09,16.87s-12.17,18.94-24.19,18.94c-14.8,0-24.51-7.4-26.58-19.81h13.53c1.51,6.05,6.29,8.83,13.37,8.83,4.61,0,9.87-1.51,9.87-6.29,0-3.74-4.46-5.57-10.74-6.92l-7-1.43c-9.39-1.99-17.9-6.45-17.9-16.79,0-11.78,12.65-17.27,23.95-17.27s22.04,4.93,24.03,17.66h-13.45c-1.35-4.3-5.57-6.76-11.38-6.76-5.25,0-9.15,1.99-9.15,5.57Z"/>
    <path class="cls-1" d="M334.16,432.1v4.93h-31.67v20.37h29.76v5.01h-29.76v22.44h31.67v4.93h-37v-57.69h37Z"/>
    <path class="cls-1" d="M360.57,483.19l17.82-51.08h5.73l-20.69,57.69h-6.13l-20.77-57.69h5.89l18.14,51.08Z"/>
    <path class="cls-1" d="M395.98,437.19v52.6h-5.33v-57.69h8.59l19.1,51.64,19.02-51.64h8.51v57.69h-5.33v-52.6l-19.57,52.6h-5.41l-19.57-52.6Z"/>
    <path class="cls-1" d="M482.15,437.19v52.6h-5.33v-57.69h8.59l19.1,51.64,19.02-51.64h8.51v57.69h-5.33v-52.6l-19.57,52.6h-5.41l-19.57-52.6Z"/>
    <path class="cls-1" d="M554.88,490.83c-7.96,0-14.16-4.61-14.16-11.7,0-9.71,9.55-13.29,30.16-15.36v-1.51c0-9.71-5.73-11.86-11.94-11.86-7.24,0-11.62,4.06-12.02,9.63h-5.17c1.11-8.43,7.96-14,17.51-14s16.55,4.14,16.55,16.87c0,5.89-.08,9.79-.08,13.21,0,4.85,.24,9.07,.48,13.69h-5.01l-.24-6.52c-2.79,4.54-8.12,7.56-16.07,7.56Zm16.23-20.61v-2.07c-17.43,1.91-24.91,4.22-24.91,10.9,0,4.54,4.14,7.4,9.79,7.4,7.96,0,15.12-4.06,15.12-16.23Z"/>
    <path class="cls-1" d="M590.29,439.98h-4.93v-7.88h4.93v7.88Zm0,49.81h-4.93v-42.81h4.93v42.81Z"/>
    <path class="cls-1" d="M620.61,446.27c10.11,0,14.4,6.05,14.4,16.55v26.97h-4.93v-25.62c0-8.04-2.07-13.45-10.74-13.45-7.4,0-12.97,6.21-12.97,15.28v23.79h-4.93v-42.81h4.93v7.24c2.07-4.06,6.29-7.96,14.24-7.96Z"/>
    <path class="cls-1" d="M664.05,446.27c10.11,0,14.4,6.05,14.4,16.55v26.97h-4.93v-25.62c0-8.04-2.07-13.45-10.74-13.45-7.4,0-12.97,6.21-12.97,15.28v23.79h-4.93v-42.81h4.93v7.24c2.07-4.06,6.29-7.96,14.24-7.96Z"/>
    <path class="cls-1" d="M705.03,446.27c12.09,0,19.73,10.19,19.1,23.55h-34.06c.16,10.34,6.68,16.47,15.44,16.47,6.68,0,11.38-3.42,13.05-9.31h5.17c-2.07,8.83-9.15,13.85-18.54,13.85-12.57,0-20.21-8.99-20.21-22.28s8.59-22.28,20.05-22.28Zm13.69,19.02c0-7.24-5.17-14.56-13.77-14.56-7.96,0-13.69,5.09-14.72,14.56h28.49Z"/>
    <path class="cls-1" d="M738.93,437.35v9.63h8.43v4.3h-8.43v27.37c0,5.57,.16,6.68,5.89,6.68h2.55v4.46h-4.06c-7.64,0-9.39-1.75-9.39-10.19v-28.33h-7.08v-4.3h7.08v-9.63h5.01Z"/>
  </g>
</svg>